<svg width="400" height="400" viewBox="0 0 400 400" fill="none" xmlns="http://www.w3.org/2000/svg">
<rect x="39" y="40" width="320" height="320" rx="50" fill="url(#paint0_linear_2_75)"/>
<path d="M251.604 89.4882L215.221 196.791L312.065 255.604L204.762 219.221L145.949 316.065L182.332 208.762L85.4882 149.949L192.791 186.332L251.604 89.4882Z" fill="#D8A159"/>
<circle cx="200.5" cy="201.5" r="112.5" fill="black"/>
<path d="M136.607 64.0538L203.591 190.133L335.946 136.607L209.867 203.591L263.393 335.946L196.409 209.867L64.0538 263.393L190.133 196.409L136.607 64.0538Z" fill="#D8A159"/>
<circle cx="200.5" cy="202.5" r="87.5" fill="black"/>
<path d="M136.872 139.872L198.744 192.994L260.616 139.872L207.494 201.744L260.616 263.616L198.744 210.494L136.872 263.616L189.994 201.744L136.872 139.872Z" fill="#D8A159"/>
<path d="M200 101L214.142 186.858L300 201L214.142 215.142L200 301L185.858 215.142L100 201L185.858 186.858L200 101Z" fill="url(#paint1_radial_2_75)"/>
<defs>
<linearGradient id="paint0_linear_2_75" x1="97" y1="65" x2="386" y2="399" gradientUnits="userSpaceOnUse">
<stop offset="0.596154"/>
<stop offset="1" stop-color="#D8A159"/>
</linearGradient>
<radialGradient id="paint1_radial_2_75" cx="0" cy="0" r="1" gradientUnits="userSpaceOnUse" gradientTransform="translate(200 201) rotate(90) scale(100)">
<stop stop-color="#FAFEF2"/>
<stop offset="0.509615" stop-color="#D8A159"/>
</radialGradient>
</defs>
</svg>
